<svg width="44" height="48" viewBox="0 0 44 48" fill="none" xmlns="http://www.w3.org/2000/svg">
<path d="M33.0625 10.6875C30.625 11.625 27.0625 12.4688 21.9062 12.4688C16.9375 12.4688 13.4688 11.625 10.9375 10.7812C12.0625 6.09375 13.9375 0 17.0312 0C17.9688 0 18.9062 0.46875 19.5625 1.03125C21.0625 2.15625 23.0312 2.15625 24.4375 1.03125C25.1875 0.46875 26.0312 0 27.0625 0C30.0625 0 32.0312 6 33.0625 10.6875ZM10 21C3.34375 17.25 1.09375 11.1562 1 11.0625C0.8125 10.3125 1.09375 9.5625 1.84375 9.1875C2.59375 8.90625 3.4375 9.09375 3.90625 9.65625C4 9.84375 8.21875 15.4688 22 15.4688C35.7812 15.4688 40 9.75 40 9.65625C40.4688 9.09375 41.3125 8.90625 41.875 9.1875C42.625 9.5625 43 10.3125 42.7188 11.0625C42.625 11.1562 40.375 17.25 33.8125 21C33.8125 27.6562 28.4688 33 21.9062 33C15.3438 33 10 27.6562 10 21ZM42.9062 44.3438C43.375 46.2188 41.875 48 39.9062 48H4C2.03125 48 0.53125 46.2188 1.09375 44.3438C2.3125 39.4688 6.625 36 11.6875 36H32.3125C37.2812 36 41.6875 39.4688 42.9062 44.3438Z" fill="white"/>
</svg>
