<svg width="60" height="48" viewBox="0 0 60 48" fill="none" xmlns="http://www.w3.org/2000/svg">
<path d="M58.7812 21.6562C59.5312 22.2188 60 23.0625 60 24C60 25.0312 59.5312 25.875 58.7812 26.4375L49.7812 33.1875C49.2188 33.5625 48.5625 33.75 48 33.75C47.0625 33.75 46.125 33.375 45.5625 32.625C44.5312 31.3125 44.8125 29.3438 46.125 28.4062L48 27H24V33.6562C26.625 34.875 28.5 37.5 28.5 40.5C28.5 44.7188 25.125 48 21 48C16.7812 48 13.5 44.7188 13.5 40.5C13.5 37.5 15.2812 34.875 18 33.6562V27H3C1.3125 27 0 25.6875 0 24C0 22.4062 1.3125 21 3 21H9V14.4375C6.28125 13.2188 4.5 10.5938 4.5 7.5C4.5 3.375 7.78125 0 12 0C16.125 0 19.5 3.375 19.5 7.5C19.5 10.5938 17.625 13.2188 15 14.4375V21H30V14.4375C27.2812 13.2188 25.5 10.5938 25.5 7.5C25.5 3.375 28.7812 0 33 0C37.125 0 40.5 3.375 40.5 7.5C40.5 10.5938 38.625 13.2188 36 14.4375V21H48L46.125 19.6875C44.8125 18.6562 44.5312 16.7812 45.5625 15.4688C46.5938 14.1562 48.4688 13.875 49.7812 14.9062L58.7812 21.6562ZM33 4.5C31.3125 4.5 30 5.90625 30 7.5C30 9.1875 31.3125 10.5 33 10.5C34.5938 10.5 36 9.1875 36 7.5C36 5.90625 34.5938 4.5 33 4.5ZM12 4.5C10.3125 4.5 9 5.90625 9 7.5C9 9.1875 10.3125 10.5 12 10.5C13.5938 10.5 15 9.1875 15 7.5C15 5.90625 13.5938 4.5 12 4.5ZM21 43.5C22.5938 43.5 24 42.1875 24 40.5C24 38.9062 22.5938 37.5 21 37.5C19.3125 37.5 18 38.9062 18 40.5C18 42.1875 19.3125 43.5 21 43.5Z" fill="white"/>
</svg>
