<svg width="62" height="49" viewBox="0 0 62 49" fill="none" xmlns="http://www.w3.org/2000/svg">
<path d="M13 9C10.4688 9 8.5 6.84375 8.5 4.5C8.5 2.0625 10.4688 0 13 0C15.4375 0 17.4062 2.15625 17.4062 4.5C17.4062 6.9375 15.4375 9 13 9ZM48.9062 9C46.4688 9 44.4062 6.84375 44.4062 4.5C44.4062 2.0625 46.375 0 48.9062 0C51.4375 0 53.3125 2.15625 53.3125 4.5C53.3125 6.9375 51.3438 9 48.9062 9ZM57.5312 24.2812C58 26.1562 57.4375 28.125 56.2188 29.5312L49.75 36.6562L48.8125 45.375C48.625 46.875 47.4062 48 45.9062 48C45.8125 48 45.7188 48 45.5312 48C43.9375 47.8125 42.7188 46.4062 42.9062 44.7188L43.8438 36C43.9375 34.7812 44.5 33.6562 45.25 32.7188L49.375 28.125L47.6875 21.5625L47.0312 23.4375C46.6562 24.6562 45.9062 25.6875 44.7812 26.5312L40 29.5312C39.5312 29.8125 38.875 30 38.4062 30H23.5C22.9375 30 22.2812 29.8125 21.8125 29.5312L17.0312 26.5312C15.9062 25.6875 15.1562 24.6562 14.7812 23.4375L14.125 21.5625L12.4375 28.125L16.5625 32.7188C17.3125 33.6562 17.875 34.7812 17.9688 36L18.9062 44.7188C19.0938 46.4062 17.9688 47.8125 16.2812 48C16.1875 48 16.0938 48 16 48C14.4062 48 13.1875 46.875 13 45.2812L12.0625 36.5625L5.6875 29.5312C4.46875 28.0312 3.90625 26.0625 4.375 24.1875L6.0625 16.6875C6.53125 14.8125 7.84375 13.2188 9.625 12.4688C11.3125 11.7188 13.2812 11.8125 14.875 12.75C17.0312 13.9688 18.625 15.9375 19.375 18.2812L20.4062 21.4688L22 22.5V13.5C22 12.75 22.6562 12 23.5 12H38.4062C39.1562 12 39.9062 12.75 39.9062 13.5L40 22.5938L41.5 21.5625L42.5312 18.375C43.2812 16.125 44.875 14.0625 47.0312 12.8438C48.7188 11.9062 50.5938 11.8125 52.2812 12.5625C54.0625 13.3125 55.375 14.9062 55.8438 16.7812L57.5312 24.2812ZM5.3125 33.6562L9.15625 37.9688L9.34375 39.6562L6.71875 46.125C6.15625 47.625 4.375 48.4688 2.875 47.8125C1.28125 47.25 0.53125 45.4688 1.1875 43.9688L5.3125 33.6562ZM60.7188 43.9688C61.375 45.4688 60.625 47.25 58.9375 47.8125C58.6562 48 58.2812 48 57.9062 48C56.7812 48 55.6562 47.3438 55.2812 46.125L52.6562 39.6562L52.8438 37.9688L56.6875 33.6562L60.7188 43.9688Z" fill="white"/>
</svg>
