<svg width="48" height="48" viewBox="0 0 48 48" fill="none" xmlns="http://www.w3.org/2000/svg">
<path d="M43.5 0C45.9375 0 48 2.0625 48 4.5V45C48 46.6875 46.5938 48 45 48H3C1.3125 48 0 46.6875 0 45V16.5C0 14.0625 1.96875 12 4.5 12L18 12.0938V4.5C18 2.0625 19.9688 0 22.5 0H43.5ZM12 31.5V28.5C12 27.75 11.25 27 10.5 27H7.5C6.65625 27 6 27.75 6 28.5V31.5C6 32.3438 6.65625 33 7.5 33H10.5C11.25 33 12 32.3438 12 31.5ZM12 22.5V19.5C12 18.75 11.25 18 10.5 18H7.5C6.65625 18 6 18.75 6 19.5V22.5C6 23.3438 6.65625 24 7.5 24H10.5C11.25 24 12 23.3438 12 22.5ZM30 28.5V25.5C30 24.75 29.25 24 28.5 24H25.5C24.6562 24 24 24.75 24 25.5V28.5C24 29.3438 24.6562 30 25.5 30H28.5C29.25 30 30 29.3438 30 28.5ZM30 19.5V16.5C30 15.75 29.25 15 28.5 15H25.5C24.6562 15 24 15.75 24 16.5V19.5C24 20.3438 24.6562 21 25.5 21H28.5C29.25 21 30 20.3438 30 19.5ZM30 10.5V7.5C30 6.75 29.25 6 28.5 6H25.5C24.6562 6 24 6.75 24 7.5V10.5C24 11.3438 24.6562 12 25.5 12H28.5C29.25 12 30 11.3438 30 10.5ZM42 28.5V25.5C42 24.75 41.25 24 40.5 24H37.5C36.6562 24 36 24.75 36 25.5V28.5C36 29.3438 36.6562 30 37.5 30H40.5C41.25 30 42 29.3438 42 28.5ZM42 19.5V16.5C42 15.75 41.25 15 40.5 15H37.5C36.6562 15 36 15.75 36 16.5V19.5C36 20.3438 36.6562 21 37.5 21H40.5C41.25 21 42 20.3438 42 19.5ZM42 10.5V7.5C42 6.75 41.25 6 40.5 6H37.5C36.6562 6 36 6.75 36 7.5V10.5C36 11.3438 36.6562 12 37.5 12H40.5C41.25 12 42 11.3438 42 10.5Z" fill="white"/>
</svg>
